<svg xmlns="http://www.w3.org/2000/svg" viewBox="0 0 64 64" fill="none">
  <rect width="64" height="64" rx="15" fill="#0C1017"/>
  <rect x="4.75" y="4.75" width="54.5" height="54.5" rx="11" fill="none" stroke="#B08D4C" stroke-opacity="0.4" stroke-width="1.2"/>
  <path d="M32 11 L34.9 26.4 Q35.2 28.8 37.6 29.1 L53 32 L37.6 34.9 Q35.2 35.2 34.9 37.6 L32 53 L29.1 37.6 Q28.8 35.2 26.4 34.9 L11 32 L26.4 29.1 Q28.8 28.8 29.1 26.4 Z" fill="#C9A968"/>
  <path d="M32 20 L33.1 29.6 Q33.3 30.7 34.4 30.9 L44 32 L34.4 33.1 Q33.3 33.3 33.1 34.4 L32 44 L30.9 34.4 Q30.7 33.3 29.6 33.1 L20 32 L29.6 30.9 Q30.7 30.7 30.9 29.6 Z" fill="#0C1017"/>
  <circle cx="32" cy="32" r="2.4" fill="#C9A968"/>
  <path d="M46 18 L47.4 21.6 L51 23 L47.4 24.4 L46 28 L44.6 24.4 L41 23 L44.6 21.6 Z" fill="#C9A968" fill-opacity="0.55"/>
</svg>
